<svg width="757" height="72" viewBox="0 0 757 72" fill="none" xmlns="http://www.w3.org/2000/svg">
<path d="M14.736 53.288C23.328 53.288 27.264 49.064 27.264 44.12C27.264 31.88 6.576 37.448 6.576 28.232C6.576 24.872 9.312 22.136 15.456 22.136C18.432 22.136 21.792 23.048 24.672 24.92L25.872 22.088C23.184 20.216 19.248 19.112 15.456 19.112C6.912 19.112 3.072 23.384 3.072 28.328C3.072 40.76 23.76 35.096 23.76 44.312C23.76 47.624 21.024 50.264 14.736 50.264C10.32 50.264 6.048 48.536 3.648 46.184L2.256 48.92C4.752 51.512 9.696 53.288 14.736 53.288ZM46.3793 49.016C45.4193 49.88 44.0273 50.312 42.6353 50.312C39.8033 50.312 38.2673 48.68 38.2673 45.704V30.632H45.9473V27.752H38.2673V22.232H34.8593V27.752H30.3473V30.632H34.8593V45.896C34.8593 50.552 37.4993 53.24 42.2513 53.24C44.2193 53.24 46.2353 52.664 47.5793 51.464L46.3793 49.016ZM87.2505 27.752L79.2345 49.208L71.1705 27.752H68.2425L60.1305 49.208L52.2105 27.752H48.9465L58.4505 53H61.6665L69.6345 32.312L77.6025 53H80.8185L90.3705 27.752H87.2505ZM105.119 53.24C112.511 53.24 117.935 47.864 117.935 40.376C117.935 32.888 112.511 27.56 105.119 27.56C97.7269 27.56 92.2549 32.888 92.2549 40.376C92.2549 47.864 97.7269 53.24 105.119 53.24ZM105.119 50.216C99.7429 50.216 95.7109 46.28 95.7109 40.376C95.7109 34.472 99.7429 30.536 105.119 30.536C110.495 30.536 114.479 34.472 114.479 40.376C114.479 46.28 110.495 50.216 105.119 50.216ZM128.157 32.696V27.752H124.893V53H128.301V40.136C128.301 34.184 131.517 30.824 136.797 30.824C137.037 30.824 137.325 30.872 137.613 30.872V27.56C132.957 27.56 129.741 29.336 128.157 32.696ZM145.79 50.168L161.678 30.008V27.752H141.71V30.632H157.31L141.422 50.744V53H161.966V50.168H145.79ZM178.572 53.24C185.964 53.24 191.388 47.864 191.388 40.376C191.388 32.888 185.964 27.56 178.572 27.56C171.18 27.56 165.708 32.888 165.708 40.376C165.708 47.864 171.18 53.24 178.572 53.24ZM178.572 50.216C173.196 50.216 169.164 46.28 169.164 40.376C169.164 34.472 173.196 30.536 178.572 30.536C183.948 30.536 187.932 34.472 187.932 40.376C187.932 46.28 183.948 50.216 178.572 50.216ZM211.21 27.56C206.842 27.56 203.434 29.336 201.61 32.408V27.752H198.346V53H201.754V39.752C201.754 33.992 205.162 30.632 210.586 30.632C215.386 30.632 218.17 33.368 218.17 38.696V53H221.578V38.36C221.578 31.112 217.354 27.56 211.21 27.56ZM252.956 40.376C252.956 32.792 247.82 27.56 240.716 27.56C233.612 27.56 228.38 32.888 228.38 40.376C228.38 47.864 233.756 53.24 241.628 53.24C245.612 53.24 249.116 51.8 251.372 49.112L249.452 46.904C247.532 49.112 244.796 50.216 241.724 50.216C236.204 50.216 232.172 46.712 231.788 41.432H252.908C252.908 41.048 252.956 40.664 252.956 40.376ZM240.716 30.488C245.66 30.488 249.26 33.944 249.692 38.888H231.788C232.22 33.944 235.82 30.488 240.716 30.488ZM285.463 27.56C281.287 27.56 277.783 29.384 275.719 32.744V27.752H272.455V62.312H275.863V48.248C277.975 51.512 281.431 53.24 285.463 53.24C292.663 53.24 298.039 48.056 298.039 40.376C298.039 32.744 292.663 27.56 285.463 27.56ZM285.223 50.216C279.847 50.216 275.815 46.28 275.815 40.376C275.815 34.52 279.847 30.536 285.223 30.536C290.551 30.536 294.631 34.52 294.631 40.376C294.631 46.28 290.551 50.216 285.223 50.216ZM308.25 32.696V27.752H304.986V53H308.394V40.136C308.394 34.184 311.61 30.824 316.89 30.824C317.13 30.824 317.418 30.872 317.706 30.872V27.56C313.05 27.56 309.834 29.336 308.25 32.696ZM325.884 50.168L341.772 30.008V27.752H321.804V30.632H337.404L321.516 50.744V53H342.06V50.168H325.884ZM370.378 40.376C370.378 32.792 365.242 27.56 358.138 27.56C351.034 27.56 345.802 32.888 345.802 40.376C345.802 47.864 351.178 53.24 359.05 53.24C363.034 53.24 366.538 51.8 368.794 49.112L366.874 46.904C364.954 49.112 362.218 50.216 359.146 50.216C353.626 50.216 349.594 46.712 349.21 41.432H370.33C370.33 41.048 370.378 40.664 370.378 40.376ZM358.138 30.488C363.082 30.488 366.682 33.944 367.114 38.888H349.21C349.642 33.944 353.242 30.488 358.138 30.488ZM378.712 50.168L394.6 30.008V27.752H374.632V30.632H390.232L374.344 50.744V53H394.888V50.168H378.712Z" fill="white"/>
<path d="M435.596 26.0424L437.54 27.9636L466.777 56.6887L497.957 26.0424H490.159L466.777 49.0271L443.382 26.0424H435.596Z" fill="white"/>
<path d="M420 26.0424L421.944 27.9636L429.742 35.6252L433.641 31.7944L427.798 26.0541H420V26.0424ZM505.767 26.0424L486.284 45.208L490.171 49.0271L513.553 26.0424H505.767ZM437.54 35.6135L433.641 39.4443L441.439 47.1058L445.338 43.2751L437.54 35.6135ZM449.237 47.1058L445.338 50.9366L466.777 72.0001L478.474 60.5077L476.018 58.0945L474.575 56.6887L466.777 64.3502L449.237 47.1176V47.1058ZM482.373 49.0271L478.486 52.8462L482.385 56.677L486.284 52.8462L484.34 50.9366L482.385 49.0271H482.373Z" fill="white"/>
<path d="M466.777 0L454.579 11.9727L454.519 12.0312H454.638L457.917 15.2528L461.256 18.5447L466.717 23.9102L468.959 26.1126L472.297 29.3928L466.777 34.8168L461.196 29.3342L464.535 26.054H457.858L454.519 29.3342L466.777 41.3654L478.915 29.3225L475.636 26.1009L472.297 22.8207L464.607 15.2646L461.268 11.9844L466.789 6.57208L472.369 12.0547L469.03 15.3349H475.708L479.046 12.0547L466.777 0Z" fill="white"/>
<path d="M472.297 29.3926L468.959 32.6728L472.274 35.9296L475.636 32.6025L472.297 29.4043V29.3926Z" fill="white"/>
<path d="M461.256 11.9727L464.619 8.68081L461.256 5.42406L457.917 8.70424L461.244 11.9844L461.256 11.9727Z" fill="white"/>
<path d="M546.326 37.5698L540.531 43.357V51.4169H536V20.2551H540.531V37.6635L557.749 20.2551H562.912L549.366 34.2779L563.77 51.4169H558.464L546.326 37.5698Z" fill="white"/>
<path d="M595.845 20.2551V51.4169H592.125L573.095 28.1861V51.4169H568.564V20.2551H572.284L591.314 43.4858V20.2551H595.845Z" fill="white"/>
<path d="M614.661 47.8555L616.342 44.3879C618.703 46.4849 622.733 47.9961 626.811 47.9961C632.296 47.9961 634.645 45.8991 634.645 43.193C634.645 35.5783 615.436 40.3931 615.436 28.8187C615.436 24.0156 619.239 19.9154 627.574 19.9154C631.294 19.9154 635.134 20.8994 637.769 22.6801L636.278 26.2415C633.512 24.5076 630.388 23.6993 627.586 23.6993C622.197 23.6993 619.883 25.9252 619.883 28.643C619.883 36.2577 639.092 31.4897 639.092 42.9352C639.092 47.7032 635.193 51.7917 626.811 51.7917C621.958 51.7917 617.212 50.1868 614.673 47.8789L614.661 47.8555Z" fill="white"/>
<path d="M642.837 39.6199C642.837 32.591 648.143 27.6004 655.344 27.6004C662.546 27.6004 667.805 32.591 667.805 39.6199C667.805 46.6489 662.546 51.6863 655.344 51.6863C648.143 51.6863 642.837 46.6606 642.837 39.6199ZM663.405 39.6199C663.405 34.5942 659.959 31.3375 655.344 31.3375C650.73 31.3375 647.236 34.5825 647.236 39.6199C647.236 44.6573 650.73 47.9375 655.344 47.9375C659.959 47.9375 663.405 44.6456 663.405 39.6199Z" fill="white"/>
<path d="M673.826 18.3807H678.178V51.4051H673.826V18.3807Z" fill="white"/>
<path d="M707.725 27.823L697.221 51.4169H692.785L682.268 27.823H686.799L695.039 46.7426L703.469 27.823H707.725Z" fill="white"/>
<path d="M724.717 27.6004V31.7358C724.359 31.6889 724.037 31.6889 723.727 31.6889C719.065 31.6889 716.167 34.4888 716.167 39.6551V51.4051H711.815V27.823H715.989V31.7826C717.527 29.0179 720.52 27.6004 724.729 27.6004H724.717Z" fill="white"/>
<path d="M727.614 39.6199C727.614 32.591 732.92 27.6004 740.122 27.6004C747.324 27.6004 752.582 32.591 752.582 39.6199C752.582 46.6489 747.324 51.6863 740.122 51.6863C732.92 51.6863 727.614 46.6606 727.614 39.6199ZM748.183 39.6199C748.183 34.5942 744.737 31.3375 740.122 31.3375C735.508 31.3375 732.014 34.5825 732.014 39.6199C732.014 44.6573 735.496 47.9375 740.122 47.9375C744.749 47.9375 748.183 44.6456 748.183 39.6199Z" fill="white"/>
</svg>
