<svg width="337" height="97" viewBox="0 0 337 97" fill="none" xmlns="http://www.w3.org/2000/svg">
<path d="M76.6922 22.144C75.4442 22.144 74.2442 21.944 73.0922 21.544C71.9562 21.128 71.0762 20.6 70.4522 19.96L71.1482 18.592C71.7402 19.168 72.5322 19.656 73.5242 20.056C74.5322 20.44 75.5882 20.632 76.6922 20.632C77.7482 20.632 78.6042 20.504 79.2602 20.248C79.9322 19.976 80.4202 19.616 80.7242 19.168C81.0442 18.72 81.2042 18.224 81.2042 17.68C81.2042 17.024 81.0122 16.496 80.6282 16.096C80.2602 15.696 79.7722 15.384 79.1642 15.16C78.5562 14.92 77.8842 14.712 77.1482 14.536C76.4122 14.36 75.6762 14.176 74.9402 13.984C74.2042 13.776 73.5242 13.504 72.9002 13.168C72.2922 12.832 71.7962 12.392 71.4122 11.848C71.0442 11.288 70.8602 10.56 70.8602 9.664C70.8602 8.832 71.0762 8.072 71.5082 7.384C71.9562 6.68 72.6362 6.12 73.5482 5.704C74.4602 5.272 75.6282 5.056 77.0522 5.056C77.9962 5.056 78.9322 5.192 79.8602 5.464C80.7882 5.72 81.5882 6.08 82.2602 6.544L81.6602 7.96C80.9402 7.48 80.1722 7.128 79.3562 6.904C78.5562 6.68 77.7802 6.568 77.0282 6.568C76.0202 6.568 75.1882 6.704 74.5322 6.976C73.8762 7.248 73.3882 7.616 73.0682 8.08C72.7642 8.528 72.6122 9.04 72.6122 9.616C72.6122 10.272 72.7962 10.8 73.1642 11.2C73.5482 11.6 74.0442 11.912 74.6522 12.136C75.2762 12.36 75.9562 12.56 76.6922 12.736C77.4282 12.912 78.1562 13.104 78.8762 13.312C79.6122 13.52 80.2842 13.792 80.8922 14.128C81.5162 14.448 82.0122 14.88 82.3802 15.424C82.7642 15.968 82.9562 16.68 82.9562 17.56C82.9562 18.376 82.7322 19.136 82.2842 19.84C81.8362 20.528 81.1482 21.088 80.2202 21.52C79.3082 21.936 78.1322 22.144 76.6922 22.144ZM90.4498 22.12C89.2658 22.12 88.3538 21.8 87.7138 21.16C87.0738 20.52 86.7538 19.616 86.7538 18.448V6.616H88.4578V18.352C88.4578 19.088 88.6418 19.656 89.0098 20.056C89.3938 20.456 89.9378 20.656 90.6418 20.656C91.3938 20.656 92.0178 20.44 92.5138 20.008L93.1138 21.232C92.7778 21.536 92.3698 21.76 91.8898 21.904C91.4258 22.048 90.9458 22.12 90.4498 22.12ZM84.4978 10.816V9.4H92.2978V10.816H84.4978ZM98.5495 22L93.7975 9.4H95.4295L99.7495 21.088H99.0055L103.445 9.4H104.909L109.301 21.088H108.557L112.949 9.4H114.509L109.733 22H108.125L103.901 11.008H104.405L100.157 22H98.5495ZM121.86 22.12C120.644 22.12 119.548 21.848 118.572 21.304C117.612 20.744 116.852 19.984 116.292 19.024C115.732 18.048 115.452 16.936 115.452 15.688C115.452 14.424 115.732 13.312 116.292 12.352C116.852 11.392 117.612 10.64 118.572 10.096C119.532 9.552 120.628 9.28 121.86 9.28C123.108 9.28 124.212 9.552 125.172 10.096C126.148 10.64 126.908 11.392 127.452 12.352C128.012 13.312 128.292 14.424 128.292 15.688C128.292 16.936 128.012 18.048 127.452 19.024C126.908 19.984 126.148 20.744 125.172 21.304C124.196 21.848 123.092 22.12 121.86 22.12ZM121.86 20.608C122.772 20.608 123.58 20.408 124.284 20.008C124.988 19.592 125.54 19.016 125.94 18.28C126.356 17.528 126.564 16.664 126.564 15.688C126.564 14.696 126.356 13.832 125.94 13.096C125.54 12.36 124.988 11.792 124.284 11.392C123.58 10.976 122.78 10.768 121.884 10.768C120.988 10.768 120.188 10.976 119.484 11.392C118.78 11.792 118.22 12.36 117.804 13.096C117.388 13.832 117.18 14.696 117.18 15.688C117.18 16.664 117.388 17.528 117.804 18.28C118.22 19.016 118.78 19.592 119.484 20.008C120.188 20.408 120.98 20.608 121.86 20.608ZM131.771 22V9.4H133.403V12.832L133.235 12.232C133.587 11.272 134.179 10.544 135.011 10.048C135.843 9.536 136.875 9.28 138.107 9.28V10.936C138.043 10.936 137.979 10.936 137.915 10.936C137.851 10.92 137.787 10.912 137.723 10.912C136.395 10.912 135.355 11.32 134.603 12.136C133.851 12.936 133.475 14.08 133.475 15.568V22H131.771ZM140.035 22V20.872L148.435 10.24L148.795 10.816H140.179V9.4H150.139V10.504L141.763 21.16L141.331 20.584H150.307V22H140.035ZM158.586 22.12C157.37 22.12 156.274 21.848 155.298 21.304C154.338 20.744 153.578 19.984 153.018 19.024C152.458 18.048 152.178 16.936 152.178 15.688C152.178 14.424 152.458 13.312 153.018 12.352C153.578 11.392 154.338 10.64 155.298 10.096C156.258 9.552 157.354 9.28 158.586 9.28C159.834 9.28 160.938 9.552 161.898 10.096C162.874 10.64 163.634 11.392 164.178 12.352C164.738 13.312 165.018 14.424 165.018 15.688C165.018 16.936 164.738 18.048 164.178 19.024C163.634 19.984 162.874 20.744 161.898 21.304C160.922 21.848 159.818 22.12 158.586 22.12ZM158.586 20.608C159.498 20.608 160.306 20.408 161.01 20.008C161.714 19.592 162.266 19.016 162.666 18.28C163.082 17.528 163.29 16.664 163.29 15.688C163.29 14.696 163.082 13.832 162.666 13.096C162.266 12.36 161.714 11.792 161.01 11.392C160.306 10.976 159.506 10.768 158.61 10.768C157.714 10.768 156.914 10.976 156.21 11.392C155.506 11.792 154.946 12.36 154.53 13.096C154.114 13.832 153.906 14.696 153.906 15.688C153.906 16.664 154.114 17.528 154.53 18.28C154.946 19.016 155.506 19.592 156.21 20.008C156.914 20.408 157.706 20.608 158.586 20.608ZM174.929 9.28C175.953 9.28 176.849 9.48 177.617 9.88C178.401 10.264 179.009 10.856 179.441 11.656C179.889 12.456 180.113 13.464 180.113 14.68V22H178.409V14.848C178.409 13.52 178.073 12.52 177.401 11.848C176.745 11.16 175.817 10.816 174.617 10.816C173.721 10.816 172.937 11 172.265 11.368C171.609 11.72 171.097 12.24 170.729 12.928C170.377 13.6 170.201 14.416 170.201 15.376V22H168.497V9.4H170.129V12.856L169.865 12.208C170.265 11.296 170.905 10.584 171.785 10.072C172.665 9.544 173.713 9.28 174.929 9.28ZM190.068 22.12C188.756 22.12 187.604 21.848 186.612 21.304C185.62 20.744 184.844 19.984 184.284 19.024C183.724 18.048 183.444 16.936 183.444 15.688C183.444 14.44 183.708 13.336 184.236 12.376C184.78 11.416 185.516 10.664 186.444 10.12C187.388 9.56 188.444 9.28 189.612 9.28C190.796 9.28 191.844 9.552 192.756 10.096C193.684 10.624 194.412 11.376 194.94 12.352C195.468 13.312 195.732 14.424 195.732 15.688C195.732 15.768 195.724 15.856 195.708 15.952C195.708 16.032 195.708 16.12 195.708 16.216H184.74V14.944H194.796L194.124 15.448C194.124 14.536 193.924 13.728 193.524 13.024C193.14 12.304 192.612 11.744 191.94 11.344C191.268 10.944 190.492 10.744 189.612 10.744C188.748 10.744 187.972 10.944 187.284 11.344C186.596 11.744 186.06 12.304 185.676 13.024C185.292 13.744 185.1 14.568 185.1 15.496V15.76C185.1 16.72 185.308 17.568 185.724 18.304C186.156 19.024 186.748 19.592 187.5 20.008C188.268 20.408 189.14 20.608 190.116 20.608C190.884 20.608 191.596 20.472 192.252 20.2C192.924 19.928 193.5 19.512 193.98 18.952L194.94 20.056C194.38 20.728 193.676 21.24 192.828 21.592C191.996 21.944 191.076 22.12 190.068 22.12ZM211.985 22.12C210.897 22.12 209.913 21.872 209.033 21.376C208.153 20.864 207.449 20.136 206.921 19.192C206.409 18.232 206.153 17.064 206.153 15.688C206.153 14.312 206.409 13.152 206.921 12.208C207.433 11.248 208.129 10.52 209.009 10.024C209.889 9.528 210.881 9.28 211.985 9.28C213.185 9.28 214.257 9.552 215.201 10.096C216.161 10.624 216.913 11.376 217.457 12.352C218.001 13.312 218.273 14.424 218.273 15.688C218.273 16.968 218.001 18.088 217.457 19.048C216.913 20.008 216.161 20.76 215.201 21.304C214.257 21.848 213.185 22.12 211.985 22.12ZM205.481 26.656V9.4H207.113V13.192L206.945 15.712L207.185 18.256V26.656H205.481ZM211.865 20.608C212.761 20.608 213.561 20.408 214.265 20.008C214.969 19.592 215.529 19.016 215.945 18.28C216.361 17.528 216.569 16.664 216.569 15.688C216.569 14.712 216.361 13.856 215.945 13.12C215.529 12.384 214.969 11.808 214.265 11.392C213.561 10.976 212.761 10.768 211.865 10.768C210.969 10.768 210.161 10.976 209.441 11.392C208.737 11.808 208.177 12.384 207.761 13.12C207.361 13.856 207.161 14.712 207.161 15.688C207.161 16.664 207.361 17.528 207.761 18.28C208.177 19.016 208.737 19.592 209.441 20.008C210.161 20.408 210.969 20.608 211.865 20.608ZM221.747 22V9.4H223.379V12.832L223.211 12.232C223.563 11.272 224.155 10.544 224.987 10.048C225.819 9.536 226.851 9.28 228.083 9.28V10.936C228.019 10.936 227.955 10.936 227.891 10.936C227.827 10.92 227.763 10.912 227.699 10.912C226.371 10.912 225.331 11.32 224.579 12.136C223.827 12.936 223.451 14.08 223.451 15.568V22H221.747ZM230.012 22V20.872L238.412 10.24L238.772 10.816H230.156V9.4H240.116V10.504L231.74 21.16L231.308 20.584H240.284V22H230.012ZM248.779 22.12C247.467 22.12 246.315 21.848 245.323 21.304C244.331 20.744 243.555 19.984 242.995 19.024C242.435 18.048 242.155 16.936 242.155 15.688C242.155 14.44 242.419 13.336 242.947 12.376C243.491 11.416 244.227 10.664 245.155 10.12C246.099 9.56 247.155 9.28 248.323 9.28C249.507 9.28 250.555 9.552 251.467 10.096C252.395 10.624 253.123 11.376 253.651 12.352C254.179 13.312 254.443 14.424 254.443 15.688C254.443 15.768 254.435 15.856 254.419 15.952C254.419 16.032 254.419 16.12 254.419 16.216H243.451V14.944H253.507L252.835 15.448C252.835 14.536 252.635 13.728 252.235 13.024C251.851 12.304 251.323 11.744 250.651 11.344C249.979 10.944 249.203 10.744 248.323 10.744C247.459 10.744 246.683 10.944 245.995 11.344C245.307 11.744 244.771 12.304 244.387 13.024C244.003 13.744 243.811 14.568 243.811 15.496V15.76C243.811 16.72 244.019 17.568 244.435 18.304C244.867 19.024 245.459 19.592 246.211 20.008C246.979 20.408 247.851 20.608 248.827 20.608C249.595 20.608 250.307 20.472 250.963 20.2C251.635 19.928 252.211 19.512 252.691 18.952L253.651 20.056C253.091 20.728 252.387 21.24 251.539 21.592C250.707 21.944 249.787 22.12 248.779 22.12ZM256.426 22V20.872L264.826 10.24L265.186 10.816H256.57V9.4H266.53V10.504L258.154 21.16L257.722 20.584H266.698V22H256.426Z" fill="#293241"/>
<path d="M15.5962 51.0424L17.5398 52.9636L46.7767 81.6887L77.9572 51.0424H70.1591L46.7767 74.0271L23.3824 51.0424H15.5962V51.0424Z" fill="#293241"/>
<path d="M0 51.0424L1.94357 52.9636L9.74168 60.6252L13.6407 56.7944L7.79811 51.0541H0V51.0424ZM85.7673 51.0424L66.2839 70.208L70.1711 74.0271L93.5535 51.0424H85.7673ZM17.5398 60.6135L13.6407 64.4443L21.4388 72.1058L25.3379 68.2751L17.5398 60.6135ZM29.237 72.1058L25.3379 75.9366L46.7767 97.0001L58.4739 85.5077L56.0176 83.0945L54.5749 81.6887L46.7767 89.3502L29.237 72.1176V72.1058ZM62.373 74.0271L58.4858 77.8462L62.3849 81.677L66.2839 77.8462L64.3404 75.9366L62.3849 74.0271H62.373Z" fill="#293241"/>
<path d="M46.7767 25L34.5788 36.9727L34.5192 37.0312H34.6384L37.9174 40.2528L41.2561 43.5447L46.7171 48.9102L48.9588 51.1126L52.2974 54.3928L46.7767 59.8168L41.1964 54.3342L44.5351 51.054H37.8578L34.5192 54.3342L46.7767 66.3654L58.9151 54.3225L55.6361 51.1009L52.2974 47.8207L44.6066 40.2646L41.268 36.9844L46.7887 31.5721L52.369 37.0547L49.0303 40.3349H55.7076L59.0462 37.0547L46.7767 25Z" fill="#293241"/>
<path d="M52.2974 54.3926L48.9587 57.6728L52.2735 60.9296L55.636 57.6025L52.2974 54.4043V54.3926Z" fill="#293241"/>
<path d="M41.2561 36.9727L44.6186 33.6808L41.2561 30.424L37.9175 33.7042L41.2442 36.9844L41.2561 36.9727Z" fill="#293241"/>
<path d="M126.326 62.5698L120.531 68.357V76.4169H116V45.2551H120.531V62.6635L137.749 45.2551H142.912L129.366 59.2779L143.77 76.4169H138.464L126.326 62.5698Z" fill="#293241"/>
<path d="M175.845 45.2551V76.4169H172.125L153.095 53.1861V76.4169H148.564V45.2551H152.284L171.314 68.4858V45.2551H175.845Z" fill="#293241"/>
<path d="M194.661 72.8555L196.342 69.3879C198.703 71.4849 202.733 72.9961 206.811 72.9961C212.296 72.9961 214.645 70.8991 214.645 68.193C214.645 60.5783 195.436 65.3931 195.436 53.8187C195.436 49.0156 199.239 44.9154 207.574 44.9154C211.294 44.9154 215.134 45.8994 217.769 47.6801L216.278 51.2415C213.512 49.5076 210.388 48.6993 207.586 48.6993C202.197 48.6993 199.883 50.9252 199.883 53.643C199.883 61.2577 219.092 56.4898 219.092 67.9352C219.092 72.7032 215.193 76.7917 206.811 76.7917C201.958 76.7917 197.212 75.1868 194.673 72.8789L194.661 72.8555Z" fill="#293241"/>
<path d="M222.837 64.6199C222.837 57.591 228.143 52.6004 235.345 52.6004C242.546 52.6004 247.805 57.591 247.805 64.6199C247.805 71.6489 242.546 76.6863 235.345 76.6863C228.143 76.6863 222.837 71.6606 222.837 64.6199V64.6199ZM243.405 64.6199C243.405 59.5942 239.959 56.3375 235.345 56.3375C230.73 56.3375 227.236 59.5825 227.236 64.6199C227.236 69.6573 230.73 72.9375 235.345 72.9375C239.959 72.9375 243.405 69.6456 243.405 64.6199Z" fill="#293241"/>
<path d="M253.826 43.3807H258.178V76.4051H253.826V43.3807Z" fill="#293241"/>
<path d="M287.725 52.823L277.221 76.4169H272.785L262.268 52.823H266.799L275.039 71.7426L283.469 52.823H287.725Z" fill="#293241"/>
<path d="M304.717 52.6004V56.7358C304.359 56.6889 304.037 56.6889 303.727 56.6889C299.065 56.6889 296.167 59.4888 296.167 64.6551V76.4051H291.815V52.823H295.988V56.7826C297.527 54.0179 300.52 52.6004 304.729 52.6004H304.717Z" fill="#293241"/>
<path d="M307.614 64.6199C307.614 57.591 312.92 52.6004 320.122 52.6004C327.324 52.6004 332.582 57.591 332.582 64.6199C332.582 71.6489 327.324 76.6863 320.122 76.6863C312.92 76.6863 307.614 71.6606 307.614 64.6199V64.6199ZM328.183 64.6199C328.183 59.5942 324.737 56.3375 320.122 56.3375C315.508 56.3375 312.014 59.5825 312.014 64.6199C312.014 69.6573 315.496 72.9375 320.122 72.9375C324.749 72.9375 328.183 69.6456 328.183 64.6199Z" fill="#293241"/>
</svg>
