<svg width="337" height="72" viewBox="0 0 337 72" fill="none" xmlns="http://www.w3.org/2000/svg">
<path d="M15.5962 26.0424L17.5398 27.9636L46.7767 56.6887L77.9572 26.0424H70.1591L46.7767 49.0271L23.3824 26.0424H15.5962V26.0424Z" fill="#293241"/>
<path d="M0 26.0424L1.94357 27.9636L9.74168 35.6252L13.6407 31.7944L7.79811 26.0541H0V26.0424ZM85.7673 26.0424L66.2839 45.208L70.1711 49.0271L93.5535 26.0424H85.7673ZM17.5398 35.6135L13.6407 39.4443L21.4388 47.1058L25.3379 43.2751L17.5398 35.6135ZM29.237 47.1058L25.3379 50.9366L46.7767 72.0001L58.4739 60.5077L56.0176 58.0945L54.5749 56.6887L46.7767 64.3502L29.237 47.1176V47.1058ZM62.373 49.0271L58.4858 52.8462L62.3849 56.677L66.2839 52.8462L64.3404 50.9366L62.3849 49.0271H62.373Z" fill="#293241"/>
<path d="M46.7767 0L34.5788 11.9727L34.5192 12.0312H34.6384L37.9174 15.2528L41.2561 18.5447L46.7171 23.9102L48.9588 26.1126L52.2974 29.3928L46.7767 34.8168L41.1964 29.3342L44.5351 26.054H37.8578L34.5192 29.3342L46.7767 41.3654L58.9151 29.3225L55.6361 26.1009L52.2974 22.8207L44.6066 15.2646L41.268 11.9844L46.7887 6.57208L52.369 12.0547L49.0303 15.3349H55.7076L59.0462 12.0547L46.7767 0Z" fill="#293241"/>
<path d="M52.2974 29.3926L48.9587 32.6728L52.2735 35.9296L55.636 32.6025L52.2974 29.4043V29.3926Z" fill="#293241"/>
<path d="M41.2561 11.9727L44.6186 8.6808L41.2561 5.42405L37.9175 8.70423L41.2442 11.9844L41.2561 11.9727Z" fill="#293241"/>
<path d="M126.326 37.5698L120.531 43.357V51.4169H116V20.2551H120.531V37.6635L137.749 20.2551H142.912L129.366 34.2779L143.77 51.4169H138.464L126.326 37.5698Z" fill="#293241"/>
<path d="M175.845 20.2551V51.4169H172.125L153.095 28.1861V51.4169H148.564V20.2551H152.284L171.314 43.4858V20.2551H175.845Z" fill="#293241"/>
<path d="M194.661 47.8555L196.342 44.3879C198.703 46.4849 202.733 47.9961 206.811 47.9961C212.296 47.9961 214.645 45.8991 214.645 43.193C214.645 35.5783 195.436 40.3931 195.436 28.8187C195.436 24.0156 199.239 19.9154 207.574 19.9154C211.294 19.9154 215.134 20.8994 217.769 22.6801L216.278 26.2415C213.512 24.5076 210.388 23.6993 207.586 23.6993C202.197 23.6993 199.883 25.9252 199.883 28.643C199.883 36.2577 219.092 31.4898 219.092 42.9352C219.092 47.7032 215.193 51.7917 206.811 51.7917C201.958 51.7917 197.212 50.1868 194.673 47.8789L194.661 47.8555Z" fill="#293241"/>
<path d="M222.837 39.6199C222.837 32.591 228.143 27.6004 235.345 27.6004C242.546 27.6004 247.805 32.591 247.805 39.6199C247.805 46.6489 242.546 51.6863 235.345 51.6863C228.143 51.6863 222.837 46.6606 222.837 39.6199V39.6199ZM243.405 39.6199C243.405 34.5942 239.959 31.3375 235.345 31.3375C230.73 31.3375 227.236 34.5825 227.236 39.6199C227.236 44.6573 230.73 47.9375 235.345 47.9375C239.959 47.9375 243.405 44.6456 243.405 39.6199Z" fill="#293241"/>
<path d="M253.826 18.3807H258.178V51.4051H253.826V18.3807Z" fill="#293241"/>
<path d="M287.725 27.823L277.221 51.4169H272.785L262.268 27.823H266.799L275.039 46.7426L283.469 27.823H287.725Z" fill="#293241"/>
<path d="M304.717 27.6004V31.7358C304.359 31.6889 304.037 31.6889 303.727 31.6889C299.065 31.6889 296.167 34.4888 296.167 39.6551V51.4051H291.815V27.823H295.988V31.7826C297.527 29.0179 300.52 27.6004 304.729 27.6004H304.717Z" fill="#293241"/>
<path d="M307.614 39.6199C307.614 32.591 312.92 27.6004 320.122 27.6004C327.324 27.6004 332.582 32.591 332.582 39.6199C332.582 46.6489 327.324 51.6863 320.122 51.6863C312.92 51.6863 307.614 46.6606 307.614 39.6199V39.6199ZM328.183 39.6199C328.183 34.5942 324.737 31.3375 320.122 31.3375C315.508 31.3375 312.014 34.5825 312.014 39.6199C312.014 44.6573 315.496 47.9375 320.122 47.9375C324.749 47.9375 328.183 44.6456 328.183 39.6199Z" fill="#293241"/>
</svg>
